<mxfile host="Electron" modified="2024-07-24T01:02:17.564Z" agent="Mozilla/5.0 (Windows NT 10.0; Win64; x64) AppleWebKit/537.36 (KHTML, like Gecko) draw.io/21.7.5 Chrome/114.0.5735.289 Electron/25.8.1 Safari/537.36" etag="Ba0j9TfXlanUD-wP2J3n" version="21.7.5" type="device">
  <diagram name="第 1 页" id="KWvOELfXXFuOR0ZtLIgL">
    <mxGraphModel dx="1238" dy="628" grid="0" gridSize="10" guides="1" tooltips="1" connect="1" arrows="1" fold="1" page="1" pageScale="1" pageWidth="180" pageHeight="200" math="0" shadow="0">
      <root>
        <mxCell id="0" />
        <mxCell id="1" parent="0" />
        <mxCell id="YkqCNVnetK39WZ9SnObg-9" style="rounded=0;orthogonalLoop=1;jettySize=auto;html=1;exitX=1;exitY=0.5;exitDx=0;exitDy=0;entryX=0;entryY=0.5;entryDx=0;entryDy=0;" edge="1" parent="1" source="6Xo3o1QixIiLEGfn1mMo-1" target="YkqCNVnetK39WZ9SnObg-1">
          <mxGeometry relative="1" as="geometry" />
        </mxCell>
        <mxCell id="YkqCNVnetK39WZ9SnObg-10" style="rounded=0;orthogonalLoop=1;jettySize=auto;html=1;entryX=0;entryY=0.5;entryDx=0;entryDy=0;exitX=1;exitY=0.5;exitDx=0;exitDy=0;" edge="1" parent="1" source="6Xo3o1QixIiLEGfn1mMo-1" target="YkqCNVnetK39WZ9SnObg-2">
          <mxGeometry relative="1" as="geometry" />
        </mxCell>
        <mxCell id="6Xo3o1QixIiLEGfn1mMo-1" value="PWM" style="rounded=0;whiteSpace=wrap;html=1;" parent="1" vertex="1">
          <mxGeometry x="331" y="442" width="104" height="48" as="geometry" />
        </mxCell>
        <mxCell id="6Xo3o1QixIiLEGfn1mMo-2" value="Perioherals&lt;div&gt;Clock&lt;/div&gt;" style="shape=cylinder3;whiteSpace=wrap;html=1;boundedLbl=1;backgroundOutline=1;size=15;" parent="1" vertex="1">
          <mxGeometry x="339" y="619" width="88" height="64" as="geometry" />
        </mxCell>
        <mxCell id="6Xo3o1QixIiLEGfn1mMo-3" value="" style="endArrow=classic;html=1;rounded=0;exitX=0.5;exitY=0;exitDx=0;exitDy=0;exitPerimeter=0;entryX=0.5;entryY=1;entryDx=0;entryDy=0;" parent="1" source="6Xo3o1QixIiLEGfn1mMo-2" target="6Xo3o1QixIiLEGfn1mMo-1" edge="1">
          <mxGeometry width="50" height="50" relative="1" as="geometry">
            <mxPoint x="380" y="536" as="sourcePoint" />
            <mxPoint x="430" y="486" as="targetPoint" />
          </mxGeometry>
        </mxCell>
        <mxCell id="6Xo3o1QixIiLEGfn1mMo-4" value="PWM Channel0" style="rounded=0;whiteSpace=wrap;html=1;" parent="1" vertex="1">
          <mxGeometry x="514" y="375" width="132" height="32" as="geometry" />
        </mxCell>
        <mxCell id="6Xo3o1QixIiLEGfn1mMo-5" value="PWM Channel1" style="rounded=0;whiteSpace=wrap;html=1;" parent="1" vertex="1">
          <mxGeometry x="514" y="422" width="132" height="32" as="geometry" />
        </mxCell>
        <mxCell id="6Xo3o1QixIiLEGfn1mMo-9" value="" style="endArrow=classic;html=1;rounded=0;exitX=1;exitY=0.5;exitDx=0;exitDy=0;entryX=0;entryY=0.5;entryDx=0;entryDy=0;" parent="1" source="6Xo3o1QixIiLEGfn1mMo-1" target="6Xo3o1QixIiLEGfn1mMo-4" edge="1">
          <mxGeometry width="50" height="50" relative="1" as="geometry">
            <mxPoint x="705" y="517" as="sourcePoint" />
            <mxPoint x="755" y="467" as="targetPoint" />
            <Array as="points" />
          </mxGeometry>
        </mxCell>
        <mxCell id="6Xo3o1QixIiLEGfn1mMo-10" value="" style="endArrow=classic;html=1;rounded=0;exitX=1;exitY=0.5;exitDx=0;exitDy=0;entryX=0;entryY=0.5;entryDx=0;entryDy=0;" parent="1" source="6Xo3o1QixIiLEGfn1mMo-1" target="6Xo3o1QixIiLEGfn1mMo-5" edge="1">
          <mxGeometry width="50" height="50" relative="1" as="geometry">
            <mxPoint x="444" y="566" as="sourcePoint" />
            <mxPoint x="494" y="516" as="targetPoint" />
          </mxGeometry>
        </mxCell>
        <mxCell id="6Xo3o1QixIiLEGfn1mMo-17" value="GPIO PB0" style="text;html=1;align=center;verticalAlign=middle;whiteSpace=wrap;rounded=0;" parent="1" vertex="1">
          <mxGeometry x="723" y="360" width="60" height="30" as="geometry" />
        </mxCell>
        <mxCell id="6Xo3o1QixIiLEGfn1mMo-24" value="" style="endArrow=none;dashed=1;html=1;rounded=0;" parent="1" edge="1">
          <mxGeometry width="50" height="50" relative="1" as="geometry">
            <mxPoint x="294" y="602" as="sourcePoint" />
            <mxPoint x="296" y="606" as="targetPoint" />
            <Array as="points">
              <mxPoint x="294" y="321" />
              <mxPoint x="698" y="321" />
              <mxPoint x="698" y="602" />
            </Array>
          </mxGeometry>
        </mxCell>
        <mxCell id="6Xo3o1QixIiLEGfn1mMo-25" value="PWM" style="text;html=1;align=center;verticalAlign=middle;whiteSpace=wrap;rounded=0;" parent="1" vertex="1">
          <mxGeometry x="302" y="288" width="60" height="30" as="geometry" />
        </mxCell>
        <mxCell id="6Xo3o1QixIiLEGfn1mMo-26" value="" style="endArrow=none;dashed=1;html=1;dashPattern=1 3;strokeWidth=2;rounded=0;" parent="1" edge="1">
          <mxGeometry width="50" height="50" relative="1" as="geometry">
            <mxPoint x="830" y="271" as="sourcePoint" />
            <mxPoint x="833" y="264" as="targetPoint" />
            <Array as="points">
              <mxPoint x="830" y="713" />
              <mxPoint x="248" y="713" />
              <mxPoint x="248" y="264" />
            </Array>
          </mxGeometry>
        </mxCell>
        <mxCell id="6Xo3o1QixIiLEGfn1mMo-27" value="CPU" style="text;html=1;align=center;verticalAlign=middle;whiteSpace=wrap;rounded=0;" parent="1" vertex="1">
          <mxGeometry x="754" y="675" width="60" height="30" as="geometry" />
        </mxCell>
        <mxCell id="v3EjWhcUO2rUDNG_ED6t-1" value="" style="endArrow=none;html=1;rounded=0;" parent="1" edge="1">
          <mxGeometry width="50" height="50" relative="1" as="geometry">
            <mxPoint x="937" y="390" as="sourcePoint" />
            <mxPoint x="1039" y="390" as="targetPoint" />
            <Array as="points">
              <mxPoint x="958" y="390" />
              <mxPoint x="958" y="378" />
              <mxPoint x="977" y="378" />
              <mxPoint x="977" y="390" />
              <mxPoint x="1000" y="390" />
              <mxPoint x="1000" y="378" />
              <mxPoint x="1019" y="378" />
              <mxPoint x="1019" y="390" />
            </Array>
          </mxGeometry>
        </mxCell>
        <mxCell id="v3EjWhcUO2rUDNG_ED6t-3" value="" style="endArrow=classic;html=1;rounded=0;exitX=1;exitY=0.5;exitDx=0;exitDy=0;" parent="1" edge="1">
          <mxGeometry width="50" height="50" relative="1" as="geometry">
            <mxPoint x="646" y="390" as="sourcePoint" />
            <mxPoint x="919" y="390" as="targetPoint" />
          </mxGeometry>
        </mxCell>
        <mxCell id="v3EjWhcUO2rUDNG_ED6t-6" value="" style="endArrow=none;html=1;rounded=0;" parent="1" edge="1">
          <mxGeometry width="50" height="50" relative="1" as="geometry">
            <mxPoint x="1042" y="438" as="sourcePoint" />
            <mxPoint x="940" y="438" as="targetPoint" />
            <Array as="points">
              <mxPoint x="1022" y="438" />
              <mxPoint x="1022" y="426" />
              <mxPoint x="1003" y="426" />
              <mxPoint x="1003" y="438" />
              <mxPoint x="980" y="438" />
              <mxPoint x="980" y="426" />
              <mxPoint x="961" y="426" />
              <mxPoint x="961" y="438" />
            </Array>
          </mxGeometry>
        </mxCell>
        <mxCell id="v3EjWhcUO2rUDNG_ED6t-10" value="" style="endArrow=classic;html=1;rounded=0;exitX=1;exitY=0.5;exitDx=0;exitDy=0;" parent="1" edge="1">
          <mxGeometry width="50" height="50" relative="1" as="geometry">
            <mxPoint x="648.5" y="437.40999999999997" as="sourcePoint" />
            <mxPoint x="921.5" y="437.40999999999997" as="targetPoint" />
          </mxGeometry>
        </mxCell>
        <mxCell id="v3EjWhcUO2rUDNG_ED6t-14" value="GPIO PB1" style="text;html=1;align=center;verticalAlign=middle;whiteSpace=wrap;rounded=0;" parent="1" vertex="1">
          <mxGeometry x="714" y="407" width="78" height="30" as="geometry" />
        </mxCell>
        <mxCell id="YkqCNVnetK39WZ9SnObg-1" value="PWM Channel0" style="rounded=0;whiteSpace=wrap;html=1;" vertex="1" parent="1">
          <mxGeometry x="514" y="502" width="132" height="32" as="geometry" />
        </mxCell>
        <mxCell id="YkqCNVnetK39WZ9SnObg-2" value="PWM Channel1" style="rounded=0;whiteSpace=wrap;html=1;" vertex="1" parent="1">
          <mxGeometry x="514" y="549" width="132" height="32" as="geometry" />
        </mxCell>
        <mxCell id="YkqCNVnetK39WZ9SnObg-3" value="GPIO PB2" style="text;html=1;align=center;verticalAlign=middle;whiteSpace=wrap;rounded=0;" vertex="1" parent="1">
          <mxGeometry x="723" y="487" width="60" height="30" as="geometry" />
        </mxCell>
        <mxCell id="YkqCNVnetK39WZ9SnObg-4" value="" style="endArrow=none;html=1;rounded=0;" edge="1" parent="1">
          <mxGeometry width="50" height="50" relative="1" as="geometry">
            <mxPoint x="937" y="517" as="sourcePoint" />
            <mxPoint x="1039" y="517" as="targetPoint" />
            <Array as="points">
              <mxPoint x="958" y="517" />
              <mxPoint x="958" y="505" />
              <mxPoint x="977" y="505" />
              <mxPoint x="977" y="517" />
              <mxPoint x="1000" y="517" />
              <mxPoint x="1000" y="505" />
              <mxPoint x="1019" y="505" />
              <mxPoint x="1019" y="517" />
            </Array>
          </mxGeometry>
        </mxCell>
        <mxCell id="YkqCNVnetK39WZ9SnObg-5" value="" style="endArrow=classic;html=1;rounded=0;exitX=1;exitY=0.5;exitDx=0;exitDy=0;" edge="1" parent="1">
          <mxGeometry width="50" height="50" relative="1" as="geometry">
            <mxPoint x="646" y="517" as="sourcePoint" />
            <mxPoint x="919" y="517" as="targetPoint" />
          </mxGeometry>
        </mxCell>
        <mxCell id="YkqCNVnetK39WZ9SnObg-6" value="" style="endArrow=none;html=1;rounded=0;" edge="1" parent="1">
          <mxGeometry width="50" height="50" relative="1" as="geometry">
            <mxPoint x="1042" y="565" as="sourcePoint" />
            <mxPoint x="940" y="565" as="targetPoint" />
            <Array as="points">
              <mxPoint x="1022" y="565" />
              <mxPoint x="1022" y="553" />
              <mxPoint x="1003" y="553" />
              <mxPoint x="1003" y="565" />
              <mxPoint x="980" y="565" />
              <mxPoint x="980" y="553" />
              <mxPoint x="961" y="553" />
              <mxPoint x="961" y="565" />
            </Array>
          </mxGeometry>
        </mxCell>
        <mxCell id="YkqCNVnetK39WZ9SnObg-7" value="" style="endArrow=classic;html=1;rounded=0;exitX=1;exitY=0.5;exitDx=0;exitDy=0;" edge="1" parent="1">
          <mxGeometry width="50" height="50" relative="1" as="geometry">
            <mxPoint x="648.5" y="564.41" as="sourcePoint" />
            <mxPoint x="921.5" y="564.41" as="targetPoint" />
          </mxGeometry>
        </mxCell>
        <mxCell id="YkqCNVnetK39WZ9SnObg-8" value="GPIO PB3" style="text;html=1;align=center;verticalAlign=middle;whiteSpace=wrap;rounded=0;" vertex="1" parent="1">
          <mxGeometry x="714" y="534" width="78" height="30" as="geometry" />
        </mxCell>
      </root>
    </mxGraphModel>
  </diagram>
</mxfile>
